<?xml version="1.0" encoding="utf-8"?>
<!-- Generator: Adobe Illustrator 19.1.0, SVG Export Plug-In . SVG Version: 6.00 Build 0)  -->
<svg version="1.1" id="Layer_1" xmlns="http://www.w3.org/2000/svg" xmlns:xlink="http://www.w3.org/1999/xlink" x="0px" y="0px"
	 viewBox="205 264.8 1005.2 313.1" style="enable-background:new 205 264.8 1005.2 313.1;" xml:space="preserve">
<style type="text/css">
	.st0{fill:#CB9865;}
	.st1{fill:#9A6732;}
</style>
<polygon class="st0" points="700.3,497.8 935.2,497.8 935.2,541.1 700.3,541.1 "/>
<path class="st1" d="M272,544.9v-42.6h37.6V367l-28.5,16L259,344.6l74.1-45.9h41.8v203.7h38v42.6H272L272,544.9z M609.5,514.5
	c-16,22.8-41.3,34.4-76,35c-34.7-0.5-60-12.2-76-35c-16-23.1-23.8-53.8-23.6-92.4c-0.3-38.8,7.4-69.6,23.2-92.7
	c16-22.8,41.3-34.6,76-35.3c34.7,0.7,60,12.5,76,35.3c16,23.1,23.8,53.9,23.6,92.7C632.9,460.6,625.2,491.4,609.5,514.5L609.5,514.5
	z M555.1,363.2c-4.5-11.9-11.9-17.7-22.1-17.5c-10.2-0.3-17.3,5.5-21.7,17.5c-4.3,11.6-6.4,31.3-6.4,58.9c0,27.3,2.2,46.9,6.4,58.6
	c4.5,11.9,11.9,17.6,22.1,17.1c10.2,0.5,17.3-5.2,21.7-17.1c4.3-11.6,6.4-31.1,6.4-58.6C561.6,394.5,559.5,374.9,555.1,363.2
	L555.1,363.2z M1012.8,544.9v-42.6h37.6V367l-28.5,16l-22-38.4l74.1-45.9h41.8v203.7h38v42.6H1012.8L1012.8,544.9z"/>
<path class="st0" d="M760.4,414.3c-0.6,9.6,3.1,14.6,11.4,15c7.9-0.4,16-2.8,24.1-7.4l-1.3,28.2c-4.4,3-10.1,5.5-17,7.6l-20.8,2.8
	c-12.8,0-22.7-3.2-29.6-9.6c-7.3-6.7-10.7-19.1-10.4-37v-50.9h-20.5v-30.4h20.5v-29.6l43.6-9.9v39.5h28.4v30.4h-28.4L760.4,414.3
	L760.4,414.3z M921.6,442.4c-11,11.8-26.9,17.8-47.7,18c-20.8-0.2-36.7-6.2-47.7-18c-11-11.6-16.5-27.2-16.7-46.6
	c0.2-19.6,5.7-35.2,16.7-46.9c11-11.8,26.9-17.9,47.7-18.3c21,0.4,36.9,6.4,47.9,18.3c11,11.6,16.4,27.2,16.4,46.9
	C938.3,415.2,932.8,430.7,921.6,442.4L921.6,442.4z M873.9,360.1c-15.1,0.5-22,12.4-20.8,35.7c-1.2,23.2,5.7,34.9,20.8,35.2
	c15.2-0.4,22.2-12.1,20.8-35.2C896.1,372.5,889.2,360.5,873.9,360.1L873.9,360.1z"/>
</svg>
