<?xml version="1.0" encoding="utf-8"?>
<!-- Generator: Adobe Illustrator 19.1.0, SVG Export Plug-In . SVG Version: 6.00 Build 0)  -->
<svg version="1.1" id="Layer_1" xmlns="http://www.w3.org/2000/svg" xmlns:xlink="http://www.w3.org/1999/xlink" x="0px" y="0px"
	 viewBox="0 0 40 40" style="enable-background:new 0 0 40 40;" xml:space="preserve">
<style type="text/css">
	.st0{fill:#43619C;}
</style>
<path id="Facebook_3_" class="st0" d="M40,37.8c0,1.2-1,2.2-2.2,2.2H27.6V24.5h5.2l0.8-6h-6v-3.9c0-1.7,0.5-2.9,3-2.9l3.2,0V6.3
	C33.2,6.2,31.3,6,29.1,6c-4.6,0-7.8,2.8-7.8,8v4.5h-5.2v6h5.2V40H2.2C1,40,0,39,0,37.8V2.2C0,1,1,0,2.2,0h35.6C39,0,40,1,40,2.2
	V37.8z"/>
</svg>
