<?xml version="1.0" encoding="utf-8"?>
<!-- Generator: Adobe Illustrator 19.1.0, SVG Export Plug-In . SVG Version: 6.00 Build 0)  -->
<svg version="1.1" id="Layer_1" xmlns="http://www.w3.org/2000/svg" xmlns:xlink="http://www.w3.org/1999/xlink" x="0px" y="0px"
	 viewBox="0 0 40 40" style="enable-background:new 0 0 40 40;" xml:space="preserve">
<style type="text/css">
	.st0{fill:#FF7500;}
</style>
<g>
	<path class="st0" d="M0.1,0c0,2.6,0,5.1,0,7.6c8.9,0.2,16.5,3.3,22.7,9.6c6.2,6.3,9.3,14,9.5,22.8c2.6,0,5.1,0,7.6,0
		C40.3,18.5,22.1-0.2,0.1,0z M26.4,40c0.1-15-12.5-26.7-26.3-26.4c0,2.5,0,5.1,0,7.6c5.1,0.1,9.6,1.9,13.2,5.5
		c3.6,3.6,5.4,8.1,5.5,13.2C21.3,40,23.8,40,26.4,40z M5.4,29.4c-2.9,0-5.3,2.3-5.4,5.1C0,37.5,2.3,40,5.3,40c2.9,0,5.3-2.3,5.4-5.2
		C10.7,31.8,8.4,29.4,5.4,29.4z"/>
	<path class="st0" d="M0.1,0c22-0.2,40.1,18.5,39.8,40c-2.5,0-5.1,0-7.6,0c-0.2-8.9-3.2-16.5-9.5-22.8C16.6,10.9,9,7.8,0.1,7.6
		C0.1,5.1,0.1,2.6,0.1,0z"/>
	<path class="st0" d="M26.4,40c-2.6,0-5.1,0-7.6,0c-0.1-5.1-1.9-9.6-5.5-13.2c-3.6-3.6-8-5.4-13.2-5.5c0-2.6,0-5.1,0-7.6
		C13.8,13.3,26.5,25,26.4,40z"/>
	<path class="st0" d="M5.4,29.4c3,0,5.3,2.4,5.3,5.4c0,2.9-2.5,5.3-5.4,5.2c-3,0-5.3-2.5-5.2-5.5C0.1,31.6,2.6,29.3,5.4,29.4z"/>
</g>
</svg>
