<?xml version="1.0" encoding="utf-8"?>
<!-- Generator: Adobe Illustrator 19.1.0, SVG Export Plug-In . SVG Version: 6.00 Build 0)  -->
<svg version="1.1" id="Layer_1" xmlns="http://www.w3.org/2000/svg" xmlns:xlink="http://www.w3.org/1999/xlink" x="0px" y="0px"
	 viewBox="0 0 40 40" style="enable-background:new 0 0 40 40;" xml:space="preserve">
<style type="text/css">
	.st0{fill:#24A9E6;}
</style>
<path id="Twitter_4_" class="st0" d="M38.9,3.9c-1.6,1-3.3,1.7-5.2,2c-1.5-1.6-3.6-2.7-6-2.7c-4.5,0-8.2,3.8-8.2,8.4
	c0,0.7,0.1,1.3,0.2,1.9C12.9,13.3,6.8,10,2.8,4.9C2.1,6.1,1.7,7.6,1.7,9.1c0,2.9,1.4,5.5,3.7,7c-1.3,0-2.6-0.4-3.7-1v0.1
	c0,4.1,2.8,7.5,6.6,8.3c-0.7,0.2-1.4,0.3-2.2,0.3c-0.5,0-1-0.1-1.5-0.1c1,3.3,4.1,5.8,7.7,5.8C9.3,31.7,5.8,33,2,33
	c-0.7,0-1.3,0-2-0.1c3.6,2.4,7.9,3.8,12.6,3.8c15.1,0,23.3-12.8,23.3-23.9c0-0.4,0-0.7,0-1.1c1.6-1.2,3-2.7,4.1-4.4
	c-1.5,0.7-3.1,1.1-4.7,1.3C37,7.6,38.3,5.9,38.9,3.9z"/>
</svg>
